<?xml version="1.0" encoding="UTF-8" standalone="no" ?>
<!DOCTYPE svg PUBLIC "-//W3C//DTD SVG 1.1//EN" "http://www.w3.org/Graphics/SVG/1.1/DTD/svg11.dtd">
<svg xmlns="http://www.w3.org/2000/svg" xmlns:xlink="http://www.w3.org/1999/xlink" version="1.1" width="413" height="147" viewBox="0 0 413 147" xml:space="preserve">
<desc>Created with Fabric.js 3.6.3</desc>
<defs>
</defs>
<g transform="matrix(1.33 0 0 1.33 276.04 74.2)"  >
<polygon style="stroke: rgb(0,0,0); stroke-width: 3; stroke-dasharray: none; stroke-linecap: butt; stroke-dashoffset: 0; stroke-linejoin: miter; stroke-miterlimit: 4; fill: none; fill-rule: nonzero; opacity: 1;" vector-effect="non-scaling-stroke"  points="-50,-50 -50,50 50,50 50,-50 " />
</g>
<g transform="matrix(-0.67 -0.67 0.67 -0.67 343.84 74.43)"  >
<polygon style="stroke: rgb(0,0,0); stroke-width: 3; stroke-dasharray: none; stroke-linecap: butt; stroke-dashoffset: 0; stroke-linejoin: miter; stroke-miterlimit: 4; fill: none; fill-rule: nonzero; opacity: 1;" vector-effect="non-scaling-stroke"  points="-50,-50 50,50 -50,50 " />
</g>
<g transform="matrix(1.15 0 0 1.15 76.09 9.56)"  >
<line style="stroke: rgb(0,0,0); stroke-width: 3; stroke-dasharray: none; stroke-linecap: butt; stroke-dashoffset: 0; stroke-linejoin: miter; stroke-miterlimit: 4; fill: rgb(0,0,0); fill-rule: nonzero; opacity: 1;" vector-effect="non-scaling-stroke"  x1="60.706259973745716" y1="-1.4210854715202004e-14" x2="-60.706259973745716" y2="1.4210854715202004e-14" />
</g>
<g transform="matrix(1.15 0 0 1.15 8.98 77.51)"  >
<line style="stroke: rgb(0,0,0); stroke-width: 3; stroke-dasharray: none; stroke-linecap: butt; stroke-dashoffset: 0; stroke-linejoin: miter; stroke-miterlimit: 4; fill: rgb(0,0,0); fill-rule: nonzero; opacity: 1;" vector-effect="non-scaling-stroke"  x1="0" y1="-59.03388857258176" x2="0" y2="59.03388857258176" />
</g>
<g transform="matrix(1.15 0 0 1.15 76.33 143.09)"  >
<line style="stroke: rgb(0,0,0); stroke-width: 3; stroke-dasharray: none; stroke-linecap: butt; stroke-dashoffset: 0; stroke-linejoin: miter; stroke-miterlimit: 4; fill: rgb(0,0,0); fill-rule: nonzero; opacity: 1;" vector-effect="non-scaling-stroke"  x1="-56.5088488645805" y1="0" x2="56.5088488645805" y2="0" />
</g>
<g transform="matrix(0.18 0 0 0.18 8.86 136.63)"  >
<circle style="stroke: rgb(0,0,0); stroke-width: 3; stroke-dasharray: none; stroke-linecap: butt; stroke-dashoffset: 0; stroke-linejoin: miter; stroke-miterlimit: 4; fill: rgb(255,255,255); fill-rule: nonzero; opacity: 1;" vector-effect="non-scaling-stroke"  cx="0" cy="0" r="40" />
</g>
<g transform="matrix(0.18 0 0 0.18 138.94 138.94)"  >
<circle style="stroke: rgb(0,0,0); stroke-width: 3; stroke-dasharray: none; stroke-linecap: butt; stroke-dashoffset: 0; stroke-linejoin: miter; stroke-miterlimit: 4; fill: rgb(255,255,255); fill-rule: nonzero; opacity: 1;" vector-effect="non-scaling-stroke"  cx="0" cy="0" r="40" />
</g>
<g transform="matrix(0.18 0 0 0.18 341.48 138.1)"  >
<circle style="stroke: rgb(0,0,0); stroke-width: 3; stroke-dasharray: none; stroke-linecap: butt; stroke-dashoffset: 0; stroke-linejoin: miter; stroke-miterlimit: 4; fill: rgb(255,255,255); fill-rule: nonzero; opacity: 1;" vector-effect="non-scaling-stroke"  cx="0" cy="0" r="40" />
</g>
<g transform="matrix(0.18 0 0 0.18 403.64 72.48)"  >
<circle style="stroke: rgb(0,0,0); stroke-width: 3; stroke-dasharray: none; stroke-linecap: butt; stroke-dashoffset: 0; stroke-linejoin: miter; stroke-miterlimit: 4; fill: rgb(255,255,255); fill-rule: nonzero; opacity: 1;" vector-effect="non-scaling-stroke"  cx="0" cy="0" r="40" />
</g>
<g transform="matrix(0.18 0 0 0.18 342.63 9.17)"  >
<circle style="stroke: rgb(0,0,0); stroke-width: 3; stroke-dasharray: none; stroke-linecap: butt; stroke-dashoffset: 0; stroke-linejoin: miter; stroke-miterlimit: 4; fill: rgb(255,255,255); fill-rule: nonzero; opacity: 1;" vector-effect="non-scaling-stroke"  cx="0" cy="0" r="40" />
</g>
<g transform="matrix(0.18 0 0 0.18 137.79 8.87)"  >
<circle style="stroke: rgb(0,0,0); stroke-width: 3; stroke-dasharray: none; stroke-linecap: butt; stroke-dashoffset: 0; stroke-linejoin: miter; stroke-miterlimit: 4; fill: rgb(255,255,255); fill-rule: nonzero; opacity: 1;" vector-effect="non-scaling-stroke"  cx="0" cy="0" r="40" />
</g>
<g transform="matrix(0.18 0 0 0.18 10.02 11.17)"  >
<circle style="stroke: rgb(0,0,0); stroke-width: 3; stroke-dasharray: none; stroke-linecap: butt; stroke-dashoffset: 0; stroke-linejoin: miter; stroke-miterlimit: 4; fill: rgb(255,255,255); fill-rule: nonzero; opacity: 1;" vector-effect="non-scaling-stroke"  cx="0" cy="0" r="40" />
</g>
</svg>